<?xml version="1.0" encoding="UTF-8" standalone="no"?>
<svg width="40" height="13" viewBox="0 0 40 13" fill="none" xmlns="http://www.w3.org/2000/svg">
<path d="M11.7909 0.230668L8.42741 8.7872L7.0662 1.51181C6.95091 0.77314 6.31785 0.229294 5.57491 0.230668H0.0758808L0 0.593814C1.12892 0.841626 2.41115 1.24685 3.18854 1.66455C3.66396 1.92483 3.80798 2.15082 3.96283 2.76957L6.53349 12.8036H9.94038L15.1854 0.230668H11.7909ZM16.573 0.230668L13.8986 12.8036H17.1305L19.8033 0.230668H16.5699H16.573ZM35.1018 3.62834L36.0821 8.34768H33.3999L35.1018 3.62834ZM34.628 0.230668C34.025 0.225543 33.48 0.591222 33.2528 1.15334L28.4026 12.8036H31.7956L32.4692 10.9255H36.6148L37.0112 12.8036H40L37.386 0.230668H34.628ZM20.6907 4.1567C20.669 5.96775 22.295 6.97614 23.5199 7.58554C24.7789 8.20897 25.2002 8.59705 25.1955 9.14411C25.1862 9.98729 24.1905 10.3598 23.2613 10.3738C21.6369 10.3988 20.6938 9.93274 19.9427 9.57895L19.3573 12.3314C20.1115 12.6805 21.5052 12.9844 22.9516 13C26.3477 13 28.5668 11.3121 28.5776 8.69836C28.5916 5.38017 24.0186 5.19782 24.0496 3.71095C24.0604 3.26052 24.4863 2.77581 25.4201 2.65736C26.5128 2.55318 27.6133 2.74756 28.6055 3.22L29.1738 0.553291C28.2049 0.188848 27.1791 0.00147688 26.1448 0C22.9501 0 20.7031 1.71442 20.6845 4.15514L20.6907 4.1567Z" fill="#1A1F71"/>
</svg>
